<svg width="389" height="503" viewBox="0 0 389 503" fill="none" xmlns="http://www.w3.org/2000/svg">
<rect x="2" y="2" width="385" height="499" rx="3" stroke="white" stroke-width="2"/>
<rect x="13" y="19" width="363" height="39" rx="3" stroke="white" stroke-width="2"/>
<rect x="13" y="76" width="363" height="39" rx="3" stroke="white" stroke-width="2"/>
<rect x="13" y="133" width="363" height="39" rx="3" stroke="white" stroke-width="2"/>
<rect x="343" y="32" width="13" height="13" rx="3" stroke="white" stroke-width="2"/>
<rect x="343" y="89" width="13" height="13" rx="3" stroke="white" stroke-width="2"/>
<rect x="343" y="146" width="13" height="13" rx="3" stroke="white" stroke-width="2"/>
<rect x="13" y="190" width="363" height="39" rx="3" stroke="white" stroke-width="2"/>
<rect x="13" y="247" width="363" height="39" rx="3" stroke="white" stroke-width="2"/>
<rect x="13" y="304" width="363" height="39" rx="3" stroke="white" stroke-width="2"/>
<rect x="33" y="203" width="13" height="13" rx="3" stroke="white" stroke-width="2"/>
<rect x="33" y="260" width="13" height="13" rx="3" stroke="white" stroke-width="2"/>
<rect x="33" y="317" width="13" height="13" rx="3" stroke="white" stroke-width="2"/>
<rect x="118" y="370" width="12" height="112" rx="3" stroke="white" stroke-width="2"/>
<rect x="165" y="370" width="12" height="112" rx="3" stroke="white" stroke-width="2"/>
<rect x="212" y="370" width="12" height="112" rx="3" stroke="white" stroke-width="2"/>
<rect x="259" y="370" width="12" height="112" rx="3" stroke="white" stroke-width="2"/>
</svg>