<svg width="282" height="364" viewBox="0 0 282 364" fill="none" xmlns="http://www.w3.org/2000/svg">
<rect x="1" y="1" width="279.503" height="362" rx="4" stroke="white" stroke-width="2"/>
<rect x="8.96021" y="13.3022" width="263.583" height="29.1173" rx="4" stroke="white" stroke-width="2"/>
<rect x="8.96021" y="54.5507" width="263.583" height="29.1173" rx="4" stroke="white" stroke-width="2"/>
<rect x="8.96021" y="95.7992" width="263.583" height="29.1173" rx="4" stroke="white" stroke-width="2"/>
<rect x="84.9443" y="267.306" width="9.57853" height="81.9443" rx="4" stroke="white" stroke-width="2"/>
<rect x="118.956" y="267.306" width="9.57853" height="81.9443" rx="4" stroke="white" stroke-width="2"/>
<rect x="152.968" y="267.306" width="9.57853" height="81.9443" rx="4" stroke="white" stroke-width="2"/>
<rect x="186.98" y="267.306" width="9.57853" height="81.9443" rx="4" stroke="white" stroke-width="2"/>
<rect x="247.767" y="22.7097" width="10.3022" height="10.3022" rx="4" stroke="white" stroke-width="2"/>
<rect x="247.767" y="63.9583" width="10.3022" height="10.3022" rx="4" stroke="white" stroke-width="2"/>
<rect x="247.767" y="105.207" width="10.3022" height="10.3022" rx="4" stroke="white" stroke-width="2"/>
<rect x="8.96021" y="137.048" width="263.583" height="29.1173" rx="4" stroke="white" stroke-width="2"/>
<rect x="8.96021" y="178.296" width="263.583" height="29.1173" rx="4" stroke="white" stroke-width="2"/>
<rect x="8.96021" y="219.545" width="263.583" height="29.1173" rx="4" stroke="white" stroke-width="2"/>
<rect x="23.4333" y="146.455" width="10.3022" height="10.3022" rx="4" stroke="white" stroke-width="2"/>
<rect x="23.4333" y="187.704" width="10.3022" height="10.3022" rx="4" stroke="white" stroke-width="2"/>
<rect x="23.4333" y="228.952" width="10.3022" height="10.3022" rx="4" stroke="white" stroke-width="2"/>
</svg>
