<svg width="389" height="644" viewBox="0 0 389 644" fill="none" xmlns="http://www.w3.org/2000/svg">
<rect x="2" y="2" width="385" height="640" rx="3" stroke="white" stroke-width="2"/>
<rect x="170" y="19" width="206" height="45" rx="3" stroke="white" stroke-width="2"/>
<rect x="32" y="160" width="79" height="11" rx="3" stroke="white" stroke-width="2"/>
<rect x="32" y="222" width="79" height="11" rx="3" stroke="white" stroke-width="2"/>
<rect x="32" y="284" width="79" height="11" rx="3" stroke="white" stroke-width="2"/>
<rect x="32" y="344" width="79" height="11" rx="3" stroke="white" stroke-width="2"/>
<rect x="32" y="408" width="79" height="11" rx="3" stroke="white" stroke-width="2"/>
<rect x="32" y="470" width="79" height="11" rx="3" stroke="white" stroke-width="2"/>
<rect x="285" y="527" width="79" height="11" rx="3" stroke="white" stroke-width="2"/>
<rect x="285" y="552" width="79" height="11" rx="3" stroke="white" stroke-width="2"/>
<rect x="285" y="577" width="79" height="11" rx="3" stroke="white" stroke-width="2"/>
<rect x="285" y="600" width="79" height="11" rx="3" stroke="white" stroke-width="2"/>
<rect x="170" y="81" width="206" height="45" rx="3" stroke="white" stroke-width="2"/>
<rect x="13" y="143" width="363" height="45" rx="3" stroke="white" stroke-width="2"/>
<rect x="13" y="205" width="363" height="45" rx="3" stroke="white" stroke-width="2"/>
<rect x="13" y="267" width="363" height="45" rx="3" stroke="white" stroke-width="2"/>
<rect x="13" y="329" width="363" height="45" rx="3" stroke="white" stroke-width="2"/>
<rect x="13" y="391" width="363" height="45" rx="3" stroke="white" stroke-width="2"/>
<rect x="13" y="453" width="363" height="45" rx="3" stroke="white" stroke-width="2"/>
<rect x="13" y="515" width="363" height="110" rx="3" stroke="white" stroke-width="2"/>
<rect x="289" y="34" width="14" height="15" rx="7" stroke="white" stroke-width="2"/>
<rect x="317" y="34" width="14" height="15" rx="7" stroke="white" stroke-width="2"/>
<rect x="345" y="34" width="14" height="15" rx="7" stroke="white" stroke-width="2"/>
<rect x="289" y="96" width="14" height="15" rx="7" stroke="white" stroke-width="2"/>
<rect x="317" y="96" width="14" height="15" rx="7" stroke="white" stroke-width="2"/>
<rect x="345" y="96" width="14" height="15" rx="7" stroke="white" stroke-width="2"/>
<rect x="289" y="158" width="14" height="15" rx="7" stroke="white" stroke-width="2"/>
<rect x="317" y="158" width="14" height="15" rx="7" stroke="white" stroke-width="2"/>
<rect x="345" y="158" width="14" height="15" rx="7" stroke="white" stroke-width="2"/>
<rect x="289" y="220" width="14" height="15" rx="7" stroke="white" stroke-width="2"/>
<rect x="317" y="220" width="14" height="15" rx="7" stroke="white" stroke-width="2"/>
<rect x="345" y="220" width="14" height="15" rx="7" stroke="white" stroke-width="2"/>
<rect x="289" y="282" width="14" height="15" rx="7" stroke="white" stroke-width="2"/>
<rect x="317" y="282" width="14" height="15" rx="7" stroke="white" stroke-width="2"/>
<rect x="345" y="282" width="14" height="15" rx="7" stroke="white" stroke-width="2"/>
<rect x="289" y="344" width="14" height="15" rx="7" stroke="white" stroke-width="2"/>
<rect x="317" y="344" width="14" height="15" rx="7" stroke="white" stroke-width="2"/>
<rect x="345" y="344" width="14" height="15" rx="7" stroke="white" stroke-width="2"/>
<rect x="289" y="406" width="14" height="15" rx="7" stroke="white" stroke-width="2"/>
<rect x="317" y="406" width="14" height="15" rx="7" stroke="white" stroke-width="2"/>
<rect x="345" y="406" width="14" height="15" rx="7" stroke="white" stroke-width="2"/>
<rect x="289" y="468" width="14" height="15" rx="7" stroke="white" stroke-width="2"/>
<rect x="317" y="468" width="14" height="15" rx="7" stroke="white" stroke-width="2"/>
<rect x="345" y="468" width="14" height="15" rx="7" stroke="white" stroke-width="2"/>
<rect x="116" y="525" width="14" height="15" rx="7" stroke="white" stroke-width="2"/>
<rect x="144" y="525" width="14" height="15" rx="7" stroke="white" stroke-width="2"/>
<rect x="172" y="525" width="14" height="15" rx="7" stroke="white" stroke-width="2"/>
<rect x="32" y="525" width="14" height="15" rx="7" stroke="white" stroke-width="2"/>
<rect x="60" y="525" width="14" height="15" rx="7" stroke="white" stroke-width="2"/>
<rect x="88" y="525" width="14" height="15" rx="7" stroke="white" stroke-width="2"/>
<rect x="116" y="550" width="14" height="15" rx="7" stroke="white" stroke-width="2"/>
<rect x="144" y="550" width="14" height="15" rx="7" stroke="white" stroke-width="2"/>
<rect x="172" y="550" width="14" height="15" rx="7" stroke="white" stroke-width="2"/>
<rect x="32" y="550" width="14" height="15" rx="7" stroke="white" stroke-width="2"/>
<rect x="60" y="550" width="14" height="15" rx="7" stroke="white" stroke-width="2"/>
<rect x="88" y="550" width="14" height="15" rx="7" stroke="white" stroke-width="2"/>
<rect x="116" y="575" width="14" height="15" rx="7" stroke="white" stroke-width="2"/>
<rect x="144" y="575" width="14" height="15" rx="7" stroke="white" stroke-width="2"/>
<rect x="172" y="575" width="14" height="15" rx="7" stroke="white" stroke-width="2"/>
<rect x="32" y="575" width="14" height="15" rx="7" stroke="white" stroke-width="2"/>
<rect x="60" y="575" width="14" height="15" rx="7" stroke="white" stroke-width="2"/>
<rect x="88" y="575" width="14" height="15" rx="7" stroke="white" stroke-width="2"/>
<rect x="116" y="600" width="14" height="15" rx="7" stroke="white" stroke-width="2"/>
<rect x="144" y="600" width="14" height="15" rx="7" stroke="white" stroke-width="2"/>
<rect x="172" y="600" width="14" height="15" rx="7" stroke="white" stroke-width="2"/>
<rect x="32" y="600" width="14" height="15" rx="7" stroke="white" stroke-width="2"/>
<rect x="60" y="600" width="14" height="15" rx="7" stroke="white" stroke-width="2"/>
<rect x="88" y="600" width="14" height="15" rx="7" stroke="white" stroke-width="2"/>
<circle cx="71.5" cy="67.5" r="58.5" stroke="white" stroke-width="2"/>
<circle cx="71" cy="68" r="19" stroke="white" stroke-width="2"/>
</svg>
