<svg width="297" height="491" viewBox="0 0 297 491" fill="none" xmlns="http://www.w3.org/2000/svg">
<rect x="1" y="1" width="294.582" height="489" rx="4" stroke="white" stroke-width="2"/>
<rect x="129.087" y="13.9612" width="158.109" height="35.3587" rx="4" stroke="white" stroke-width="2"/>
<rect x="23.8727" y="121.463" width="61.2811" height="9.43634" rx="4" stroke="white" stroke-width="2"/>
<rect x="23.8727" y="168.733" width="61.2811" height="9.43634" rx="4" stroke="white" stroke-width="2"/>
<rect x="23.8727" y="216.003" width="61.2811" height="9.43634" rx="4" stroke="white" stroke-width="2"/>
<rect x="23.8727" y="261.748" width="61.2811" height="9.43634" rx="4" stroke="white" stroke-width="2"/>
<rect x="23.8727" y="310.543" width="61.2811" height="9.43634" rx="4" stroke="white" stroke-width="2"/>
<rect x="23.8727" y="357.814" width="61.2811" height="9.43634" rx="4" stroke="white" stroke-width="2"/>
<rect x="216.766" y="401.272" width="61.2811" height="9.43634" rx="4" stroke="white" stroke-width="2"/>
<rect x="216.766" y="420.332" width="61.2811" height="9.43634" rx="4" stroke="white" stroke-width="2"/>
<rect x="216.766" y="439.393" width="61.2811" height="9.43634" rx="4" stroke="white" stroke-width="2"/>
<rect x="216.766" y="456.929" width="61.2811" height="9.43634" rx="4" stroke="white" stroke-width="2"/>
<rect x="129.087" y="61.2314" width="158.109" height="35.3587" rx="4" stroke="white" stroke-width="2"/>
<rect x="9.3866" y="108.502" width="277.809" height="35.3587" rx="4" stroke="white" stroke-width="2"/>
<rect x="9.3866" y="155.772" width="277.809" height="35.3587" rx="4" stroke="white" stroke-width="2"/>
<rect x="9.3866" y="203.042" width="277.809" height="35.3587" rx="4" stroke="white" stroke-width="2"/>
<rect x="9.3866" y="250.312" width="277.809" height="35.3587" rx="4" stroke="white" stroke-width="2"/>
<rect x="9.3866" y="297.582" width="277.809" height="35.3587" rx="4" stroke="white" stroke-width="2"/>
<rect x="9.3866" y="344.853" width="277.809" height="35.3587" rx="4" stroke="white" stroke-width="2"/>
<rect x="9.3866" y="392.123" width="277.809" height="84.9161" rx="4" stroke="white" stroke-width="2"/>
<rect x="219.815" y="25.3975" width="11.7236" height="12.486" rx="5.8618" stroke="white" stroke-width="2"/>
<rect x="241.163" y="25.3975" width="11.7236" height="12.486" rx="5.8618" stroke="white" stroke-width="2"/>
<rect x="262.511" y="25.3975" width="11.7236" height="12.486" rx="5.8618" stroke="white" stroke-width="2"/>
<rect x="219.815" y="72.6677" width="11.7236" height="12.486" rx="5.8618" stroke="white" stroke-width="2"/>
<rect x="241.163" y="72.6677" width="11.7236" height="12.486" rx="5.8618" stroke="white" stroke-width="2"/>
<rect x="262.511" y="72.6677" width="11.7236" height="12.486" rx="5.8618" stroke="white" stroke-width="2"/>
<rect x="219.815" y="119.938" width="11.7236" height="12.486" rx="5.8618" stroke="white" stroke-width="2"/>
<rect x="241.163" y="119.938" width="11.7236" height="12.486" rx="5.8618" stroke="white" stroke-width="2"/>
<rect x="262.511" y="119.938" width="11.7236" height="12.486" rx="5.8618" stroke="white" stroke-width="2"/>
<rect x="219.815" y="167.208" width="11.7236" height="12.486" rx="5.8618" stroke="white" stroke-width="2"/>
<rect x="241.163" y="167.208" width="11.7236" height="12.486" rx="5.8618" stroke="white" stroke-width="2"/>
<rect x="262.511" y="167.208" width="11.7236" height="12.486" rx="5.8618" stroke="white" stroke-width="2"/>
<rect x="219.815" y="214.478" width="11.7236" height="12.486" rx="5.8618" stroke="white" stroke-width="2"/>
<rect x="241.163" y="214.478" width="11.7236" height="12.486" rx="5.8618" stroke="white" stroke-width="2"/>
<rect x="262.511" y="214.478" width="11.7236" height="12.486" rx="5.8618" stroke="white" stroke-width="2"/>
<rect x="219.815" y="261.748" width="11.7236" height="12.486" rx="5.8618" stroke="white" stroke-width="2"/>
<rect x="241.163" y="261.748" width="11.7236" height="12.486" rx="5.8618" stroke="white" stroke-width="2"/>
<rect x="262.511" y="261.748" width="11.7236" height="12.486" rx="5.8618" stroke="white" stroke-width="2"/>
<rect x="219.815" y="309.019" width="11.7236" height="12.486" rx="5.8618" stroke="white" stroke-width="2"/>
<rect x="241.163" y="309.019" width="11.7236" height="12.486" rx="5.8618" stroke="white" stroke-width="2"/>
<rect x="262.511" y="309.019" width="11.7236" height="12.486" rx="5.8618" stroke="white" stroke-width="2"/>
<rect x="219.815" y="356.289" width="11.7236" height="12.486" rx="5.8618" stroke="white" stroke-width="2"/>
<rect x="241.163" y="356.289" width="11.7236" height="12.486" rx="5.8618" stroke="white" stroke-width="2"/>
<rect x="262.511" y="356.289" width="11.7236" height="12.486" rx="5.8618" stroke="white" stroke-width="2"/>
<rect x="87.9161" y="399.747" width="11.7236" height="12.486" rx="5.8618" stroke="white" stroke-width="2"/>
<rect x="109.264" y="399.747" width="11.7236" height="12.486" rx="5.8618" stroke="white" stroke-width="2"/>
<rect x="130.612" y="399.747" width="11.7236" height="12.486" rx="5.8618" stroke="white" stroke-width="2"/>
<rect x="23.8727" y="399.747" width="11.7236" height="12.486" rx="5.8618" stroke="white" stroke-width="2"/>
<rect x="45.2205" y="399.747" width="11.7236" height="12.486" rx="5.8618" stroke="white" stroke-width="2"/>
<rect x="66.5684" y="399.747" width="11.7236" height="12.486" rx="5.8618" stroke="white" stroke-width="2"/>
<rect x="87.9161" y="418.807" width="11.7236" height="12.486" rx="5.8618" stroke="white" stroke-width="2"/>
<rect x="109.264" y="418.807" width="11.7236" height="12.486" rx="5.8618" stroke="white" stroke-width="2"/>
<rect x="130.612" y="418.807" width="11.7236" height="12.486" rx="5.8618" stroke="white" stroke-width="2"/>
<rect x="23.8727" y="418.807" width="11.7236" height="12.486" rx="5.8618" stroke="white" stroke-width="2"/>
<rect x="45.2205" y="418.807" width="11.7236" height="12.486" rx="5.8618" stroke="white" stroke-width="2"/>
<rect x="66.5684" y="418.807" width="11.7236" height="12.486" rx="5.8618" stroke="white" stroke-width="2"/>
<rect x="87.9161" y="437.868" width="11.7236" height="12.486" rx="5.8618" stroke="white" stroke-width="2"/>
<rect x="109.264" y="437.868" width="11.7236" height="12.486" rx="5.8618" stroke="white" stroke-width="2"/>
<rect x="130.612" y="437.868" width="11.7236" height="12.486" rx="5.8618" stroke="white" stroke-width="2"/>
<rect x="23.8727" y="437.868" width="11.7236" height="12.486" rx="5.8618" stroke="white" stroke-width="2"/>
<rect x="45.2205" y="437.868" width="11.7236" height="12.486" rx="5.8618" stroke="white" stroke-width="2"/>
<rect x="66.5684" y="437.868" width="11.7236" height="12.486" rx="5.8618" stroke="white" stroke-width="2"/>
<rect x="87.9161" y="456.929" width="11.7236" height="12.486" rx="5.8618" stroke="white" stroke-width="2"/>
<rect x="109.264" y="456.929" width="11.7236" height="12.486" rx="5.8618" stroke="white" stroke-width="2"/>
<rect x="130.612" y="456.929" width="11.7236" height="12.486" rx="5.8618" stroke="white" stroke-width="2"/>
<rect x="23.8727" y="456.929" width="11.7236" height="12.486" rx="5.8618" stroke="white" stroke-width="2"/>
<rect x="45.2205" y="456.929" width="11.7236" height="12.486" rx="5.8618" stroke="white" stroke-width="2"/>
<rect x="66.5684" y="456.929" width="11.7236" height="12.486" rx="5.8618" stroke="white" stroke-width="2"/>
<circle cx="54.5131" cy="51.4635" r="45.1266" stroke="white" stroke-width="2"/>
<circle cx="54.132" cy="51.8447" r="15.0109" stroke="white" stroke-width="2"/>
</svg>
