<svg width="296" height="445" viewBox="0 0 296 445" fill="none" xmlns="http://www.w3.org/2000/svg">
<rect x="1" y="1" width="294" height="442.38" rx="4" stroke="white" stroke-width="2"/>
<rect x="9.37024" y="142.532" width="277.26" height="35.9888" rx="4" stroke="white" stroke-width="2"/>
<rect x="9.37024" y="192.889" width="277.26" height="35.9888" rx="4" stroke="white" stroke-width="2"/>
<rect x="9.37024" y="243.247" width="277.26" height="35.9888" rx="4" stroke="white" stroke-width="2"/>
<rect x="276.455" y="10.892" width="10.1748" height="118.987" rx="4" stroke="white" stroke-width="2"/>
<rect x="260.476" y="10.892" width="10.1748" height="118.987" rx="4" stroke="white" stroke-width="2"/>
<rect x="244.496" y="10.892" width="10.1748" height="118.987" rx="4" stroke="white" stroke-width="2"/>
<rect x="228.517" y="10.892" width="10.1748" height="118.987" rx="4" stroke="white" stroke-width="2"/>
<rect x="212.537" y="10.892" width="10.1748" height="118.987" rx="4" stroke="white" stroke-width="2"/>
<rect x="196.558" y="10.892" width="10.1748" height="118.987" rx="4" stroke="white" stroke-width="2"/>
<rect x="180.578" y="10.892" width="10.1748" height="118.987" rx="4" stroke="white" stroke-width="2"/>
<rect x="164.599" y="10.892" width="10.1748" height="118.987" rx="4" stroke="white" stroke-width="2"/>
<rect x="19.2622" y="23.0668" width="112.9" height="58.1131" rx="4" stroke="white" stroke-width="2"/>
<rect x="19.2622" y="91.5501" width="112.9" height="10.9357" rx="4" stroke="white" stroke-width="2"/>
<rect x="26.1106" y="29.9152" width="7.13111" height="7.13111" rx="3.56555" stroke="white" stroke-width="2"/>
<rect x="39.0463" y="29.9152" width="7.13111" height="7.13111" rx="3.56555" stroke="white" stroke-width="2"/>
<rect x="51.9821" y="29.9152" width="7.13111" height="7.13111" rx="3.56555" stroke="white" stroke-width="2"/>
<rect x="64.9177" y="29.9152" width="7.13111" height="7.13111" rx="3.56555" stroke="white" stroke-width="2"/>
<rect x="77.8535" y="29.9152" width="7.13111" height="7.13111" rx="3.56555" stroke="white" stroke-width="2"/>
<rect x="90.7893" y="29.9152" width="7.13111" height="7.13111" rx="3.56555" stroke="white" stroke-width="2"/>
<rect x="103.725" y="29.9152" width="7.13111" height="7.13111" rx="3.56555" stroke="white" stroke-width="2"/>
<rect x="116.661" y="29.9152" width="7.13111" height="7.13111" rx="3.56555" stroke="white" stroke-width="2"/>
<rect x="69.4833" y="156.229" width="7.13111" height="7.13111" rx="3.56555" stroke="white" stroke-width="2"/>
<rect x="82.4191" y="156.229" width="7.13111" height="7.13111" rx="3.56555" stroke="white" stroke-width="2"/>
<rect x="95.3547" y="156.229" width="7.13111" height="7.13111" rx="3.56555" stroke="white" stroke-width="2"/>
<rect x="108.291" y="156.99" width="118.987" height="7.13111" rx="3.56555" stroke="white" stroke-width="2"/>
<rect x="227.278" y="214.342" width="7.13111" height="7.13111" rx="3.56555" transform="rotate(-180 227.278 214.342)" stroke="white" stroke-width="2"/>
<rect x="214.342" y="214.342" width="7.13111" height="7.13111" rx="3.56555" transform="rotate(-180 214.342 214.342)" stroke="white" stroke-width="2"/>
<rect x="201.406" y="214.342" width="7.13111" height="7.13111" rx="3.56555" transform="rotate(-180 201.406 214.342)" stroke="white" stroke-width="2"/>
<rect x="188.47" y="213.581" width="118.987" height="7.13111" rx="3.56555" transform="rotate(-180 188.47 213.581)" stroke="white" stroke-width="2"/>
<rect x="69.4833" y="256.671" width="7.13111" height="7.13111" rx="3.56555" stroke="white" stroke-width="2"/>
<rect x="82.4191" y="256.671" width="7.13111" height="7.13111" rx="3.56555" stroke="white" stroke-width="2"/>
<rect x="95.3547" y="256.671" width="7.13111" height="7.13111" rx="3.56555" stroke="white" stroke-width="2"/>
<rect x="108.291" y="257.432" width="118.987" height="7.13111" rx="3.56555" stroke="white" stroke-width="2"/>
<rect x="227.278" y="314.784" width="7.13111" height="7.13111" rx="3.56555" transform="rotate(-180 227.278 314.784)" stroke="white" stroke-width="2"/>
<rect x="214.342" y="314.784" width="7.13111" height="7.13111" rx="3.56555" transform="rotate(-180 214.342 314.784)" stroke="white" stroke-width="2"/>
<rect x="201.406" y="314.784" width="7.13111" height="7.13111" rx="3.56555" transform="rotate(-180 201.406 314.784)" stroke="white" stroke-width="2"/>
<rect x="188.47" y="314.023" width="118.987" height="7.13111" rx="3.56555" transform="rotate(-180 188.47 314.023)" stroke="white" stroke-width="2"/>
<rect x="69.4833" y="357.874" width="7.13111" height="7.13111" rx="3.56555" stroke="white" stroke-width="2"/>
<rect x="82.4191" y="357.874" width="7.13111" height="7.13111" rx="3.56555" stroke="white" stroke-width="2"/>
<rect x="95.3547" y="357.874" width="7.13111" height="7.13111" rx="3.56555" stroke="white" stroke-width="2"/>
<rect x="108.291" y="358.635" width="118.987" height="7.13111" rx="3.56555" stroke="white" stroke-width="2"/>
<rect x="227.278" y="415.987" width="7.13111" height="7.13111" rx="3.56555" transform="rotate(-180 227.278 415.987)" stroke="white" stroke-width="2"/>
<rect x="214.342" y="415.987" width="7.13111" height="7.13111" rx="3.56555" transform="rotate(-180 214.342 415.987)" stroke="white" stroke-width="2"/>
<rect x="201.406" y="415.987" width="7.13111" height="7.13111" rx="3.56555" transform="rotate(-180 201.406 415.987)" stroke="white" stroke-width="2"/>
<rect x="188.47" y="415.226" width="118.987" height="7.13111" rx="3.56555" transform="rotate(-180 188.47 415.226)" stroke="white" stroke-width="2"/>
<rect x="19.2622" y="108.29" width="112.9" height="10.9357" rx="4" stroke="white" stroke-width="2"/>
<rect x="9.37024" y="10.892" width="133.445" height="118.987" rx="4" stroke="white" stroke-width="2"/>
<rect x="9.37024" y="293.604" width="277.26" height="35.9888" rx="4" stroke="white" stroke-width="2"/>
<rect x="9.37024" y="343.961" width="277.26" height="35.9888" rx="4" stroke="white" stroke-width="2"/>
<rect x="9.37024" y="394.318" width="277.26" height="35.9888" rx="4" stroke="white" stroke-width="2"/>
</svg>
