<svg width="389" height="584" viewBox="0 0 389 584" fill="none" xmlns="http://www.w3.org/2000/svg">
<rect x="1" y="1" width="387" height="582" rx="4" stroke="white" stroke-width="2"/>
<rect x="12" y="187" width="365" height="47.9244" rx="4" stroke="white" stroke-width="2"/>
<rect x="12" y="253.179" width="365" height="47.9244" rx="4" stroke="white" stroke-width="2"/>
<rect x="12" y="319.358" width="365" height="47.9244" rx="4" stroke="white" stroke-width="2"/>
<rect x="363" y="14" width="14" height="157" rx="4" stroke="white" stroke-width="2"/>
<rect x="342" y="14" width="14" height="157" rx="4" stroke="white" stroke-width="2"/>
<rect x="321" y="14" width="14" height="157" rx="4" stroke="white" stroke-width="2"/>
<rect x="300" y="14" width="14" height="157" rx="4" stroke="white" stroke-width="2"/>
<rect x="279" y="14" width="14" height="157" rx="4" stroke="white" stroke-width="2"/>
<rect x="258" y="14" width="14" height="157" rx="4" stroke="white" stroke-width="2"/>
<rect x="237" y="14" width="14" height="157" rx="4" stroke="white" stroke-width="2"/>
<rect x="216" y="14" width="14" height="157" rx="4" stroke="white" stroke-width="2"/>
<rect x="25" y="30" width="149" height="77" rx="4" stroke="white" stroke-width="2"/>
<rect x="25" y="120" width="149" height="15" rx="4" stroke="white" stroke-width="2"/>
<rect x="34" y="39" width="10" height="10" rx="4" stroke="white" stroke-width="2"/>
<rect x="51" y="39" width="10" height="10" rx="4" stroke="white" stroke-width="2"/>
<rect x="68" y="39" width="10" height="10" rx="4" stroke="white" stroke-width="2"/>
<rect x="85" y="39" width="10" height="10" rx="4" stroke="white" stroke-width="2"/>
<rect x="102" y="39" width="10" height="10" rx="4" stroke="white" stroke-width="2"/>
<rect x="119" y="39" width="10" height="10" rx="4" stroke="white" stroke-width="2"/>
<rect x="136" y="39" width="10" height="10" rx="4" stroke="white" stroke-width="2"/>
<rect x="153" y="39" width="10" height="10" rx="4" stroke="white" stroke-width="2"/>
<rect x="91" y="205" width="10" height="10" rx="4" stroke="white" stroke-width="2"/>
<rect x="108" y="205" width="10" height="10" rx="4" stroke="white" stroke-width="2"/>
<rect x="125" y="205" width="10" height="10" rx="4" stroke="white" stroke-width="2"/>
<rect x="142" y="206" width="157" height="10" rx="4" stroke="white" stroke-width="2"/>
<rect x="299" y="282" width="10" height="10" rx="4" transform="rotate(-180 299 282)" stroke="white" stroke-width="2"/>
<rect x="282" y="282" width="10" height="10" rx="4" transform="rotate(-180 282 282)" stroke="white" stroke-width="2"/>
<rect x="265" y="282" width="10" height="10" rx="4" transform="rotate(-180 265 282)" stroke="white" stroke-width="2"/>
<rect x="248" y="281" width="157" height="10" rx="4" transform="rotate(-180 248 281)" stroke="white" stroke-width="2"/>
<rect x="91" y="337" width="10" height="10" rx="4" stroke="white" stroke-width="2"/>
<rect x="108" y="337" width="10" height="10" rx="4" stroke="white" stroke-width="2"/>
<rect x="125" y="337" width="10" height="10" rx="4" stroke="white" stroke-width="2"/>
<rect x="142" y="338" width="157" height="10" rx="4" stroke="white" stroke-width="2"/>
<rect x="299" y="414" width="10" height="10" rx="4" transform="rotate(-180 299 414)" stroke="white" stroke-width="2"/>
<rect x="282" y="414" width="10" height="10" rx="4" transform="rotate(-180 282 414)" stroke="white" stroke-width="2"/>
<rect x="265" y="414" width="10" height="10" rx="4" transform="rotate(-180 265 414)" stroke="white" stroke-width="2"/>
<rect x="248" y="413" width="157" height="10" rx="4" transform="rotate(-180 248 413)" stroke="white" stroke-width="2"/>
<rect x="91" y="470" width="10" height="10" rx="4" stroke="white" stroke-width="2"/>
<rect x="108" y="470" width="10" height="10" rx="4" stroke="white" stroke-width="2"/>
<rect x="125" y="470" width="10" height="10" rx="4" stroke="white" stroke-width="2"/>
<rect x="142" y="471" width="157" height="10" rx="4" stroke="white" stroke-width="2"/>
<rect x="299" y="547" width="10" height="10" rx="4" transform="rotate(-180 299 547)" stroke="white" stroke-width="2"/>
<rect x="282" y="547" width="10" height="10" rx="4" transform="rotate(-180 282 547)" stroke="white" stroke-width="2"/>
<rect x="265" y="547" width="10" height="10" rx="4" transform="rotate(-180 265 547)" stroke="white" stroke-width="2"/>
<rect x="248" y="546" width="157" height="10" rx="4" transform="rotate(-180 248 546)" stroke="white" stroke-width="2"/>
<rect x="25" y="142" width="149" height="15" rx="4" stroke="white" stroke-width="2"/>
<rect x="12" y="14" width="176" height="157" rx="4" stroke="white" stroke-width="2"/>
<rect x="12" y="385.537" width="365" height="47.9244" rx="4" stroke="white" stroke-width="2"/>
<rect x="12" y="451.716" width="365" height="47.9244" rx="4" stroke="white" stroke-width="2"/>
<rect x="12" y="517.895" width="365" height="47.9244" rx="4" stroke="white" stroke-width="2"/>
</svg>
